<?xml version="1.0" encoding="iso-8859-1"?>
<!-- Uploaded to: SVG Repo, www.svgrepo.com, Generator: SVG Repo Mixer Tools -->
<svg fill="#000000" height="800px" width="800px" version="1.1" id="Layer_1" xmlns="http://www.w3.org/2000/svg" xmlns:xlink="http://www.w3.org/1999/xlink" 
	 viewBox="0 0 465.359 465.359" xml:space="preserve">
<g>
	<g>
		<g>
			<path d="M382.859,274.454c-1.594,0-3.194,0.048-4.798,0.143c0.364-3.459,0.548-6.945,0.548-10.433
				c0-36.196-19.33-68.78-50.75-86.154V49.565c0-13.046-10.618-23.66-23.67-23.66h-143.03c-13.046,0-23.659,10.614-23.659,23.66
				v150.339c-16.753,3.984-31.962,13.179-43.337,26.344c-11.776,13.629-18.734,30.726-19.884,48.626
				c-19.085,1.881-36.771,10.274-50.42,24.059C8.474,314.474,0,335.079,0,356.954c0,45.491,37.01,82.5,82.5,82.5h300.359
				c45.49,0,82.5-37.009,82.5-82.5C465.359,311.464,428.35,274.454,382.859,274.454z M152.5,49.565c0-4.775,3.885-8.66,8.659-8.66
				h143.03c4.78,0,8.67,3.885,8.67,8.66v10.1H152.5V49.565z M152.5,74.664h160.359v187.027
				c-11.421-7.591-25.112-12.027-39.823-12.027c-22.242,0-43.256,10.429-56.826,27.728c-10.465-8.906-23.785-13.875-37.74-13.875
				c-9.328,0-18.144,2.215-25.97,6.126V74.664z M382.859,424.454H82.5c-37.22,0-67.5-30.28-67.5-67.5
				c0-36.796,29.941-67.068,66.743-67.48c2.017-0.022,3.939-0.856,5.334-2.313c1.395-1.457,2.144-3.415,2.078-5.43l-0.018-0.501
				c-0.014-0.353-0.028-0.706-0.028-1.064c0-16.202,5.826-31.867,16.404-44.11c8.52-9.861,19.659-17.008,31.986-20.647v64.983
				c-10.687,10.573-17.321,25.233-17.321,41.417c0,4.142,3.357,7.5,7.5,7.5s7.5-3.358,7.5-7.5c0-23.871,19.42-43.291,43.291-43.291
				c12.775,0,24.838,5.613,33.095,15.398c1.568,1.859,3.943,2.84,6.365,2.637c2.424-0.205,4.598-1.573,5.831-3.669
				c10.242-17.405,29.124-28.218,49.275-28.218c31.509,0,57.143,25.634,57.143,57.143c0,4.142,3.357,7.5,7.5,7.5s7.5-3.358,7.5-7.5
				c0-17.855-6.535-34.204-17.319-46.815v-79.353c22.313,15.466,35.75,40.741,35.75,68.525c0,5.902-0.617,11.792-1.835,17.507
				c-0.522,2.451,0.214,5.002,1.963,6.797c1.75,1.795,4.278,2.598,6.744,2.14c4.113-0.766,8.277-1.154,12.378-1.154
				c37.22,0,67.5,30.28,67.5,67.5C450.359,394.177,420.079,424.454,382.859,424.454z"/>
			<path d="M175.609,112.664h44c4.143,0,7.5-3.358,7.5-7.5c0-4.142-3.357-7.5-7.5-7.5h-44c-4.143,0-7.5,3.358-7.5,7.5
				C168.109,109.307,171.467,112.664,175.609,112.664z"/>
			<path d="M175.609,132.664h100c4.143,0,7.5-3.358,7.5-7.5c0-4.142-3.357-7.5-7.5-7.5h-100c-4.143,0-7.5,3.358-7.5,7.5
				C168.109,129.307,171.467,132.664,175.609,132.664z"/>
			<path d="M175.609,166.664h44c4.143,0,7.5-3.358,7.5-7.5c0-4.142-3.357-7.5-7.5-7.5h-44c-4.143,0-7.5,3.358-7.5,7.5
				C168.109,163.307,171.467,166.664,175.609,166.664z"/>
			<path d="M283.109,179.164c0-4.142-3.357-7.5-7.5-7.5h-100c-4.143,0-7.5,3.358-7.5,7.5c0,4.142,3.357,7.5,7.5,7.5h100
				C279.752,186.664,283.109,183.307,283.109,179.164z"/>
		</g>
	</g>
</g>
</svg>